<svg width="244" height="102" viewBox="0 0 244 102" fill="none" xmlns="http://www.w3.org/2000/svg">
<path d="M65.4453 100H43.8453V76.75H0.645313V61.9L37.3953 2.49999H65.4453V59.65H76.9953V76.75H65.4453V100ZM21.7953 59.65H43.8453V38.05C43.8453 34.35 44.0453 28.3 44.4453 19.9H43.9953C38.5953 30.6 35.5453 36.65 34.8453 38.05L21.9453 59.35L21.7953 59.65ZM121.948 101.65H121.798C109.798 101.65 100.748 96.95 94.6484 87.55C88.5484 78.15 85.4484 66.1 85.3484 51.4C85.3484 36.5 88.4984 24.35 94.7984 14.95C101.098 5.55 110.298 0.849998 122.398 0.849998C134.598 0.849998 143.698 5.55 149.698 14.95C155.698 24.35 158.698 36.3 158.698 50.8C158.698 66.3 155.548 78.65 149.248 87.85C143.048 97.05 133.948 101.65 121.948 101.65ZM122.098 84.4H122.248C131.348 84.4 135.898 73.3 135.898 51.1C135.898 29.1 131.298 18.1 122.098 18.1C117.698 18.1 114.248 20.9 111.748 26.5C109.348 32.1 108.148 40.3 108.148 51.1C108.048 62.1 109.198 70.4 111.598 76C114.098 81.6 117.598 84.4 122.098 84.4ZM231.852 100H210.252V76.75H167.052V61.9L203.802 2.49999H231.852V59.65H243.402V76.75H231.852V100ZM188.202 59.65H210.252V38.05C210.252 34.35 210.452 28.3 210.852 19.9H210.402C205.002 30.6 201.952 36.65 201.252 38.05L188.352 59.35L188.202 59.65Z" fill="#50BE14"/>
</svg>
