<svg width="143" height="30" viewBox="0 0 143 30" fill="none" xmlns="http://www.w3.org/2000/svg">
<path d="M10.3238 29.44H10.2838C7.35042 29.44 4.92375 28.5333 3.00375 26.72C1.11042 24.9067 0.16375 22.4533 0.16375 19.36C0.16375 16.2133 1.11042 13.7067 3.00375 11.84C4.92375 9.94667 7.47042 9 10.6438 9C13.6038 9 16.0038 9.93333 17.8438 11.8C19.6838 13.6667 20.6038 16.08 20.6038 19.04C20.6038 22.4 19.5904 24.9733 17.5638 26.76C15.5638 28.5467 13.1504 29.44 10.3238 29.44ZM10.4038 25.08H10.4438C11.6438 25.08 12.5904 24.5467 13.2838 23.48C13.9771 22.4133 14.3238 20.9867 14.3238 19.2C14.3238 17.6 13.9904 16.2267 13.3238 15.08C12.6838 13.9333 11.7238 13.36 10.4438 13.36C9.11042 13.36 8.11042 13.9333 7.44375 15.08C6.77708 16.2267 6.44375 17.6133 6.44375 19.24C6.44375 20.9467 6.79042 22.3467 7.48375 23.44C8.17708 24.5333 9.15042 25.08 10.4038 25.08ZM24.3297 9.44H30.3697V24.36H35.1697V9.44H41.2097V24.36H46.0097V9.44H52.0497V29H24.3297V9.44ZM56.8688 9.44H62.6288V15.44C62.6288 17.2 62.5221 19.8667 62.3088 23.44H62.4688C62.7621 22.7467 63.1354 21.8 63.5888 20.6C64.0421 19.4 64.4154 18.48 64.7088 17.84L68.5088 9.44H75.9488V29H70.1888V23.04C70.1888 22.3467 70.3088 19.5333 70.5488 14.6H70.3888C69.5888 16.84 68.9088 18.5867 68.3488 19.84C67.8954 20.8267 67.2021 22.3733 66.2688 24.48C65.3354 26.5867 64.6688 28.0933 64.2688 29H56.8688V9.44ZM98.0159 0.199999L97.6559 5C96.5359 5.32 95.0026 5.56 93.0559 5.72C90.1759 6.01333 88.1226 6.86667 86.8959 8.28C85.6959 9.56 84.9893 11.1733 84.7759 13.12H84.9759C85.5893 12.0267 86.4693 11.1467 87.6159 10.48C88.7626 9.78667 90.0293 9.44 91.4159 9.44C94.0559 9.44 96.1626 10.3333 97.7359 12.12C99.3093 13.88 100.096 16.24 100.096 19.2C100.096 22.32 99.1493 24.8133 97.2559 26.68C95.3893 28.5467 92.9893 29.48 90.0559 29.48C86.7493 29.48 84.2159 28.2933 82.4559 25.92C80.6959 23.5467 79.8159 20.4267 79.8159 16.56C79.8159 11.2533 81.2159 7.28 84.0159 4.64C85.9093 2.64 88.6293 1.44 92.1759 1.04C95.1359 0.719999 97.0826 0.439999 98.0159 0.199999ZM93.8559 19.4V19.36C93.8559 17.84 93.5359 16.5067 92.8959 15.36C92.2559 14.2133 91.2559 13.64 89.8959 13.64C88.6959 13.64 87.7493 14.1733 87.0559 15.24C86.3626 16.2533 86.0159 17.5467 86.0159 19.12C86.0159 20.64 86.3493 22.0267 87.0159 23.28C87.6826 24.5067 88.6693 25.12 89.9759 25.12C91.2826 25.12 92.2559 24.56 92.8959 23.44C93.5359 22.32 93.8559 20.9733 93.8559 19.4ZM103.862 9.44H109.942V17.24H110.582L115.542 9.44H122.622L115.422 17.88C117.422 18.2267 119.062 20.0133 120.342 23.24C120.422 23.4267 120.742 24.2533 121.302 25.72C121.862 27.1867 122.329 28.28 122.702 29H116.342C116.049 28.52 115.462 27.08 114.582 24.68C113.729 22.3867 112.382 21.24 110.542 21.24H109.942V29H103.862V9.44ZM141.743 17.44V24.28C141.743 26.4667 141.85 28.04 142.063 29H136.583L136.223 27.04H136.103C134.797 28.64 132.93 29.44 130.503 29.44C128.61 29.44 127.077 28.8533 125.903 27.68C124.757 26.48 124.183 25.0667 124.183 23.44C124.183 20.96 125.197 19.0933 127.223 17.84C129.277 16.5867 132.09 15.96 135.663 15.96V15.72C135.663 14.04 134.477 13.2 132.103 13.2C130.13 13.2 128.33 13.68 126.703 14.64L125.583 10.76C127.69 9.58667 130.223 9 133.183 9C136.223 9 138.41 9.77333 139.743 11.32C141.077 12.8667 141.743 14.9067 141.743 17.44ZM135.863 21.88V19.76C132.077 19.76 130.183 20.7867 130.183 22.84C130.183 23.5867 130.397 24.16 130.823 24.56C131.277 24.96 131.863 25.16 132.583 25.16C133.303 25.16 133.957 24.9467 134.543 24.52C135.13 24.0933 135.53 23.56 135.743 22.92C135.823 22.6 135.863 22.2533 135.863 21.88Z" fill="#50BE14"/>
</svg>
