<svg width="61" height="63" viewBox="0 0 61 63" fill="none" xmlns="http://www.w3.org/2000/svg">
<path d="M59.9872 57.383L44.9931 41.7884C48.8484 37.2055 50.9607 31.4392 50.9607 25.4362C50.9607 11.4109 39.5498 0 25.5245 0C11.4991 0 0.0882263 11.4109 0.0882263 25.4362C0.0882263 39.4615 11.4991 50.8724 25.5245 50.8724C30.7898 50.8724 35.8073 49.2843 40.0972 46.2696L55.2052 61.9826C55.8367 62.6384 56.686 63 57.5962 63C58.4577 63 59.275 62.6715 59.8954 62.0743C61.2137 60.8059 61.2557 58.7024 59.9872 57.383ZM25.5245 6.63554C35.8914 6.63554 44.3251 15.0693 44.3251 25.4362C44.3251 35.8031 35.8914 44.2369 25.5245 44.2369C15.1575 44.2369 6.72376 35.8031 6.72376 25.4362C6.72376 15.0693 15.1575 6.63554 25.5245 6.63554Z" fill="#50BE14"/>
<path d="M30.6137 13C28.6405 13 26.7851 13.7685 25.3913 15.1634L15.164 25.3907C13.769 26.7862 13 28.6411 13 30.6137C13 34.6864 16.3136 38.0001 20.3864 38.0001C22.3606 38.0001 24.215 37.2316 25.6088 35.8366L35.8361 25.6099C37.2321 24.2144 38.0001 22.3595 38.0001 20.3863C38 16.3136 34.6864 13 30.6137 13ZM20.9834 24.3925L17.5743 27.8011C16.823 28.5523 16.4091 29.5516 16.4091 30.6137C16.4091 30.9277 16.155 31.1819 15.8409 31.1819C15.5268 31.1819 15.2727 30.9277 15.2727 30.6137C15.2727 29.2476 15.8042 27.9636 16.7708 26.9976L20.1799 23.5891C20.4019 23.3671 20.7614 23.3671 20.9833 23.5891C21.2054 23.811 21.2054 24.1705 20.9834 24.3925ZM34.2292 24.003L29.5173 28.7143L22.2862 21.4823L26.9982 16.7703C27.9636 15.8043 29.2476 15.2727 30.6137 15.2727C33.4335 15.2727 35.7273 17.5665 35.7273 20.3863C35.7273 21.7524 35.1958 23.037 34.2292 24.003Z" fill="#50BE14"/>
</svg>
