<svg width="63" height="63" viewBox="0 0 63 63" fill="none" xmlns="http://www.w3.org/2000/svg">
<path d="M22.3143 62.3218C26.5315 62.3218 29.9501 58.9031 29.9501 54.686C29.9501 50.4688 26.5315 47.0502 22.3143 47.0502C18.0972 47.0502 14.6785 50.4688 14.6785 54.686C14.6785 58.9031 18.0972 62.3218 22.3143 62.3218Z" fill="#50BE14"/>
<path d="M46.7786 46.976C42.5409 46.559 38.7676 49.6562 38.3506 53.8938C37.9336 58.1315 41.0307 61.9048 45.2684 62.3218C45.7705 62.3712 46.2764 62.3712 46.7786 62.3218C51.0162 61.9048 54.1133 58.1315 53.6963 53.8938C53.3361 50.2327 50.4395 47.3363 46.7786 46.976Z" fill="#50BE14"/>
<path d="M62.495 17.9155C62.1156 17.3475 61.4729 17.0122 60.7899 17.0259H52.3386V16.8777C52.3392 7.91106 45.0709 0.641723 36.1043 0.641144C27.1378 0.640565 19.8685 7.90889 19.8679 16.8755V17.0259H13.5665L11.4166 7.24023C11.1779 6.24478 10.2904 5.54094 9.26675 5.53515H0V9.98319H7.48753L14.382 41.6384C14.564 42.6792 15.4755 43.4334 16.5319 43.4176H55.304C56.3276 43.4117 57.2149 42.708 57.4538 41.7126L62.9398 19.7689C63.1006 19.1154 62.9348 18.4246 62.495 17.9155ZM36.1033 28.665C29.5934 28.665 24.316 23.3875 24.316 16.8777C24.316 10.3678 29.5934 5.09034 36.1033 5.09034C42.6131 5.09034 47.8906 10.3678 47.8906 16.8777C47.8502 23.3708 42.5964 28.6244 36.1033 28.665Z" fill="#50BE14"/>
<path d="M34.324 17.1001L30.2467 12.9486L27.0589 16.0622L32.6931 21.7705C33.1037 22.1895 33.6632 22.4293 34.2499 22.4377C34.8289 22.4661 35.3933 22.2511 35.8067 21.8446L45.1476 13.0227L42.1081 9.76079L34.324 17.1001Z" fill="#50BE14"/>
</svg>
