<svg width="63" height="63" viewBox="0 0 63 63" fill="none" xmlns="http://www.w3.org/2000/svg">
<path d="M60.1472 61.5515C60.8179 61.5464 61.5595 61.3189 62.2553 60.6056C62.9734 59.8058 62.9996 58.884 63 58.6649V2.90786C63 1.30242 61.6967 0.00088501 60.0892 0.00088501H23.7197C24.4584 0.729813 25.0045 1.60411 25.3292 2.56075H27.476C29.0077 2.56075 30.2661 3.74855 30.3804 5.25109H37.5334C40.1143 5.25109 42.2141 7.34753 42.2141 9.92426V61.572C42.2141 61.572 54.2175 61.5583 60.1472 61.5515Z" fill="#50BE14"/>
<path d="M21.6313 4.62643C21.6037 3.26003 20.4612 2.14842 19.0845 2.14842C17.7077 2.14842 16.5651 3.26003 16.5376 4.62631C16.5154 5.72844 15.6166 6.61024 14.5154 6.61024H11.8243C11.8246 7.06198 11.8242 8.38911 11.8243 8.82497H26.3446C26.3453 8.23008 26.3425 7.1826 26.3446 6.61024H23.6535C22.5525 6.61024 21.6536 5.72844 21.6313 4.62643Z" fill="#50BE14"/>
<path d="M37.5335 9.30044H30.3899V9.7246C30.3899 11.4615 28.976 12.8744 27.2381 12.8744H10.931C9.19309 12.8744 7.77918 11.4614 7.77918 9.7246V9.30044H0.635505C0.285072 9.30044 0 9.58022 0 9.92413V62.3755C0 62.7194 0.285072 62.9992 0.635505 62.9992H37.5335C37.884 62.9992 38.169 62.7194 38.169 62.3755V9.92413C38.1689 9.58022 37.8839 9.30044 37.5335 9.30044ZM4.44853 21.1384C5.20319 20.3044 6.49093 20.24 7.32498 20.9947L8.3268 21.9011L12.0644 17.6325C12.8052 16.7862 14.0919 16.7011 14.9381 17.442C15.7843 18.1829 15.8696 19.4695 15.1287 20.3157L10.0275 26.1416C9.23063 27.0763 7.80133 26.9394 7.12902 26.3102L4.5923 24.015C3.75838 23.2604 3.694 21.9725 4.44853 21.1384ZM32.1876 58.4214H5.79142C4.66677 58.4214 3.75493 57.5097 3.75493 56.3849C3.75493 55.2601 4.66664 54.3484 5.79142 54.3484H32.1876C33.3122 54.3484 34.2241 55.2601 34.2241 56.3849C34.2241 57.5097 33.3124 58.4214 32.1876 58.4214ZM4.44853 44.4843C5.20319 43.6504 6.49093 43.5859 7.32498 44.3406L8.3268 45.247L12.0644 40.9784C12.8052 40.1321 14.0919 40.0469 14.9381 40.7879C15.7843 41.5288 15.8696 42.8154 15.1287 43.6615L10.0275 49.4874C9.23063 50.4222 7.80133 50.2851 7.12902 49.656L4.5923 47.3609C3.75838 46.6061 3.694 45.3184 4.44853 44.4843ZM32.1876 50.095H20.738C19.6134 50.095 18.7015 49.1832 18.7015 48.0585C18.7015 46.9338 19.6134 46.022 20.738 46.022H32.1876C33.3122 46.022 34.2241 46.9338 34.2241 48.0585C34.2241 49.1832 33.3124 50.095 32.1876 50.095ZM32.1876 35.2041H5.79142C4.66677 35.2041 3.75493 34.2924 3.75493 33.1676C3.75493 32.043 4.66664 31.1311 5.79142 31.1311H32.1876C33.3122 31.1311 34.2241 32.043 34.2241 33.1676C34.2241 34.2924 33.3124 35.2041 32.1876 35.2041ZM32.1876 26.7569H20.738C19.6134 26.7569 18.7015 25.8452 18.7015 24.7204C18.7015 23.5958 19.6134 22.6839 20.738 22.6839H32.1876C33.3122 22.6839 34.2241 23.5958 34.2241 24.7204C34.2241 25.8451 33.3124 26.7569 32.1876 26.7569Z" fill="#50BE14"/>
</svg>
