<svg width="63" height="63" viewBox="0 0 63 63" fill="none" xmlns="http://www.w3.org/2000/svg">
<path d="M42.315 5.06363L13.7261 19.7006L2.36252 14.1094L30.4474 0.2415C31.0774 -0.0787503 31.8334 -0.0787503 32.4949 0.2415L42.315 5.06363Z" fill="#50BE14"/>
<path d="M60.606 14.1094L31.5157 28.5206L20.622 23.1525L19.047 22.3519L47.6674 7.71749L49.2424 8.51549L60.606 14.1094Z" fill="#50BE14"/>
<path d="M29.1848 32.6734L29.1533 63L1.2915 48.4601C0.504 48.0454 0 47.2132 0 46.3181V18.2621L11.8073 24.0791V34.3061C11.8073 35.616 12.8783 36.7027 14.1698 36.7027C15.4613 36.7027 16.5323 35.616 16.5323 34.3061V26.4442L18.1073 27.2107L29.1848 32.6734Z" fill="#50BE14"/>
<path d="M62.9685 18.2936L33.9098 32.6419L33.8783 62.9685L63 47.7619L62.9685 18.2936Z" fill="#50BE14"/>
</svg>
