<svg width="13" height="15" viewBox="0 0 13 15" fill="none" xmlns="http://www.w3.org/2000/svg">
<path d="M11.6923 0H2.17309C1.4573 0 0.875 0.582305 0.875 1.29809V13.7019C0.875 14.4177 1.4573 15 2.17309 15H11.6923C11.9313 15 12.125 14.8063 12.125 14.5673V0.432686C12.125 0.19374 11.9313 0 11.6923 0ZM3.03846 1.875H9.96154C10.2005 1.875 10.3942 2.06874 10.3942 2.30769C10.3942 2.54663 10.2005 2.74037 9.96154 2.74037H3.03846C2.79948 2.74037 2.60577 2.54663 2.60577 2.30769C2.60577 2.06874 2.79951 1.875 3.03846 1.875ZM3.03846 4.18269H6.51441C6.75339 4.18269 6.9471 4.37643 6.9471 4.61537C6.9471 4.85432 6.75336 5.04806 6.51441 5.04806H3.03846C2.79948 5.04806 2.60577 4.85432 2.60577 4.61537C2.60577 4.37643 2.79951 4.18269 3.03846 4.18269ZM11.2596 14.1346H2.17309C1.93449 14.1346 1.7404 13.9405 1.7404 13.7019V13.125H11.2596V14.1346Z" fill="#2A2A2A"/>
</svg>
