<svg width="13" height="15" viewBox="0 0 13 15" fill="none" xmlns="http://www.w3.org/2000/svg">
<path d="M12.3378 7.11649C12.1389 6.91761 11.8975 6.81824 11.6133 6.81824H11.2726V4.77267C11.2726 3.46588 10.8039 2.34382 9.86639 1.40631C8.92892 0.468771 7.80698 0 6.49999 0C5.19305 0 4.07088 0.468771 3.13348 1.40628C2.19594 2.34382 1.72732 3.46584 1.72732 4.77267V6.81824H1.38646C1.10247 6.81824 0.860936 6.91761 0.662055 7.11649C0.463173 7.31522 0.36377 7.55675 0.36377 7.84101V13.9773C0.36377 14.2613 0.46321 14.5029 0.662055 14.7018C0.860936 14.9005 1.10247 15 1.38646 15H11.6135C11.8977 15 12.1391 14.9006 12.338 14.7018C12.5367 14.5029 12.6363 14.2613 12.6363 13.9773V7.8409C12.6365 7.55687 12.5367 7.31537 12.3378 7.11649ZM9.22721 6.81824H3.77278V4.77267C3.77278 4.01987 4.03916 3.37707 4.57181 2.84449C5.10454 2.31184 5.74723 2.04557 6.50011 2.04557C7.25306 2.04557 7.8956 2.3118 8.42836 2.84449C8.96087 3.37703 9.22721 4.01987 9.22721 4.77267V6.81824Z" fill="#2A2A2A"/>
</svg>
