<svg width="20" height="18" viewBox="0 0 20 18" fill="none" xmlns="http://www.w3.org/2000/svg">
<path d="M5.78139 13.8598C4.90761 13.8148 4.92406 12.5749 5.78135 12.5318C8.20979 12.5403 14.615 12.5341 17.1207 12.5359C17.806 12.5359 18.3923 12.0654 18.5465 11.3917L19.9692 5.17601C20.0507 4.82012 19.9685 4.45177 19.7437 4.16547C19.5189 3.87917 19.1823 3.71266 18.8203 3.71266C17.8123 3.71266 9.25601 3.67358 4.87349 3.65596L4.17878 1.05545C4.01201 0.434002 3.44988 0 2.81173 0H0.586249C0.262483 0 0 0.26481 0 0.591445C0 0.918081 0.262483 1.18289 0.586249 1.18289H2.81173C2.92159 1.18289 3.01832 1.25761 3.04689 1.36395L5.71491 11.3505C5.2458 11.3677 4.80885 11.5602 4.4775 11.8994C4.12934 12.2558 3.94237 12.7277 3.95101 13.228C3.96828 14.2286 4.78938 15.0427 5.78139 15.0427H6.63622C6.50916 15.3117 6.43784 15.6125 6.43784 15.9299C6.43784 17.0714 7.35833 18 8.48979 18C9.62125 18 10.5417 17.0714 10.5417 15.9299C10.5417 15.6125 10.4704 15.3117 10.3433 15.0427H14.0451C13.9182 15.3116 13.8469 15.6123 13.8469 15.9295C13.8469 17.071 14.7674 17.9997 15.8988 17.9997C17.0303 17.9997 17.9508 17.071 17.9508 15.9295C17.9508 15.6 17.8736 15.2883 17.7372 15.0114C17.9692 14.9326 18.1365 14.7118 18.1365 14.4513C18.1365 14.1246 17.874 13.8598 17.5503 13.8598H5.78139ZM9.3692 15.9299C9.3692 16.4191 8.97469 16.8171 8.48975 16.8171C8.0048 16.8171 7.61029 16.4191 7.61029 15.9299C7.61029 15.4409 8.00441 15.0431 8.489 15.0427H8.49049C8.97508 15.0431 9.3692 15.4409 9.3692 15.9299ZM15.8988 16.8168C15.4139 16.8168 15.0194 16.4188 15.0194 15.9296C15.0194 15.4452 15.4062 15.0505 15.8846 15.0427H15.9131C16.3915 15.0505 16.7784 15.4452 16.7784 15.9296C16.7783 16.4188 16.3838 16.8168 15.8988 16.8168ZM18.8246 4.89989C18.8281 4.9043 18.8276 4.90639 18.8268 4.90978L18.2273 7.5289H16.1973L16.543 4.8862L18.8156 4.89543C18.8191 4.89551 18.8212 4.89551 18.8246 4.89989ZM12.7806 11.3529V8.71179H14.8599L14.5144 11.3529H12.7806ZM9.87349 11.3529L9.52518 8.71179H11.6081V11.3529H9.87349ZM7.17284 11.3529C7.02995 11.3529 6.90406 11.2557 6.86689 11.1172L6.22428 8.71179H8.34232L8.69063 11.3529H7.17284ZM9.36916 7.52894L9.01659 4.85565L11.608 4.86617V7.52894H9.36916ZM12.7806 7.52894V4.87094L15.3609 4.88143L15.0146 7.52894H12.7806ZM7.83311 4.8508L8.1863 7.5289H5.90826L5.18991 4.84003L7.83311 4.8508ZM17.1207 11.3529H15.697L16.0425 8.71179H17.9565L17.404 11.1256C17.3734 11.2595 17.2569 11.3529 17.1207 11.3529Z" fill="#2A2A2A"/>
</svg>
