<svg width="14" height="23" viewBox="0 0 14 23" fill="none" xmlns="http://www.w3.org/2000/svg">
<path d="M0.366906 12.3975L10.6022 22.6326C10.8389 22.8695 11.1549 23 11.4919 23C11.8289 23 12.1449 22.8695 12.3816 22.6326L13.1354 21.879C13.6258 21.388 13.6258 20.5899 13.1354 20.0996L4.54053 11.5048L13.1449 2.90041C13.3816 2.66349 13.5123 2.34766 13.5123 2.01089C13.5123 1.67375 13.3816 1.35792 13.1449 1.12082L12.3911 0.367435C12.1542 0.130518 11.8384 0 11.5014 0C11.1645 0 10.8485 0.130518 10.6117 0.367435L0.366906 10.6119C0.129615 10.8496 -0.000717163 11.1669 3.14713e-05 11.5042C-0.000717163 11.8428 0.129615 12.16 0.366906 12.3975Z" fill="#787878"/>
</svg>
