<svg width="14" height="23" viewBox="0 0 14 23" fill="none" xmlns="http://www.w3.org/2000/svg">
<path d="M13.1454 10.6025L2.91013 0.367436C2.6734 0.130519 2.35739 0 2.02043 0C1.68347 0 1.36746 0.130519 1.13073 0.367436L0.376973 1.12101C-0.113503 1.61204 -0.113503 2.41012 0.376973 2.90041L8.9718 11.4952L0.367436 20.0996C0.130706 20.3365 0 20.6523 0 20.9891C0 21.3263 0.130706 21.6421 0.367436 21.8792L1.12119 22.6326C1.35811 22.8695 1.67394 23 2.01089 23C2.34785 23 2.66386 22.8695 2.90059 22.6326L13.1454 12.3881C13.3827 12.1504 13.513 11.8331 13.5123 11.4958C13.513 11.1572 13.3827 10.84 13.1454 10.6025Z" fill="#787878"/>
</svg>
