<svg width="31" height="29" viewBox="0 0 31 29" fill="none" xmlns="http://www.w3.org/2000/svg">
<path d="M8.96116 21.9665C7.60679 21.8973 7.63229 19.9923 8.9611 19.9262C12.7252 19.9393 22.6532 19.9297 26.537 19.9324C27.5993 19.9324 28.5081 19.2095 28.747 18.1746L30.9523 8.62485C31.0786 8.07807 30.9512 7.51214 30.6027 7.07227C30.2543 6.63241 29.7326 6.37658 29.1715 6.37658C27.6091 6.37658 14.3468 6.31655 7.55391 6.28947L6.47711 2.2941C6.21862 1.33931 5.34731 0.672516 4.35818 0.672516H0.908686C0.406849 0.672516 0 1.07937 0 1.5812C0 2.08304 0.406849 2.48989 0.908686 2.48989H4.35818C4.52847 2.48989 4.6784 2.60469 4.72268 2.76807L8.85811 18.1113C8.13098 18.1377 7.45371 18.4335 6.94012 18.9546C6.40048 19.5022 6.11067 20.2271 6.12406 20.9958C6.15083 22.5331 7.42354 23.7838 8.96116 23.7838H10.2861C10.0892 24.1972 9.97864 24.6593 9.97864 25.1469C9.97864 26.9007 11.4054 28.3274 13.1592 28.3274C14.9129 28.3274 16.3397 26.9007 16.3397 25.1469C16.3397 24.6593 16.2291 24.1972 16.0321 23.7838H21.7699C21.5732 24.1971 21.4626 24.659 21.4626 25.1464C21.4626 26.9002 22.8894 28.3269 24.6431 28.3269C26.3969 28.3269 27.8237 26.9001 27.8237 25.1464C27.8237 24.64 27.7041 24.1612 27.4927 23.7358C27.8523 23.6147 28.1116 23.2755 28.1116 22.8752C28.1116 22.3733 27.7047 21.9665 27.2029 21.9665H8.96116ZM14.5223 25.147C14.5223 25.8986 13.9108 26.5101 13.1591 26.5101C12.4074 26.5101 11.796 25.8986 11.796 25.147C11.796 24.3957 12.4068 23.7845 13.158 23.7839H13.1603C13.9114 23.7845 14.5223 24.3957 14.5223 25.147ZM24.6432 26.5096C23.8916 26.5096 23.28 25.8981 23.28 25.1465C23.28 24.4023 23.8797 23.7958 24.6211 23.7839H24.6654C25.4069 23.7958 26.0065 24.4023 26.0065 25.1465C26.0064 25.8981 25.3949 26.5096 24.6432 26.5096ZM29.1781 8.20062C29.1835 8.2074 29.1827 8.21061 29.1816 8.21582L28.2524 12.2398H25.1058L25.6416 8.1796L29.1642 8.19377C29.1696 8.19389 29.1728 8.19389 29.1781 8.20062ZM19.8099 18.115V14.0572H23.0328L22.4973 18.115H19.8099ZM15.3039 18.115L14.764 14.0572H17.9925V18.115H15.3039ZM11.1179 18.115C10.8964 18.1149 10.7013 17.9655 10.6437 17.7527L9.64764 14.0572H12.9306L13.4705 18.115H11.1179ZM14.5222 12.2399L13.9757 8.13265L17.9925 8.14882V12.2399H14.5222ZM19.8099 12.2399V8.15615L23.8094 8.17227L23.2727 12.2399H19.8099ZM12.1413 8.1252L12.6888 12.2398H9.1578L8.04435 8.10866L12.1413 8.1252ZM26.537 18.115H24.3304L24.8659 14.0572H27.8326L26.9762 17.7656C26.9287 17.9714 26.7481 18.115 26.537 18.115Z" fill="white"/>
</svg>
