<svg width="9" height="15" viewBox="0 0 9 15" fill="none" xmlns="http://www.w3.org/2000/svg">
<path d="M1.5501 1.26885L1.88174 0.9375H4.03125V1.875H3.32812C3.06923 1.875 2.85937 2.08485 2.85937 2.34375V2.90039C2.85937 2.98128 2.92497 3.04688 3.00586 3.04688H5.99414C6.07503 3.04688 6.14062 2.98128 6.14062 2.90039V2.34375C6.14062 2.08485 5.93077 1.875 5.67188 1.875H4.96875V0.9375H5.42435C5.67683 0.9375 5.89397 0.743379 5.90572 0.491162C5.91826 0.221982 5.70393 0 5.4375 0H1.68788C1.56346 0 1.44413 0.0494238 1.35615 0.137402L0.887401 0.606152C0.704296 0.788965 0.704296 1.08604 0.887401 1.26885C1.07021 1.45195 1.36728 1.45195 1.5501 1.26885Z" fill="#2A2A2A"/>
<path d="M7.07812 6.14678C3.98262 6.08311 5.16826 6.08001 1.92188 6.14678C0.983789 6.36064 0.28125 7.20117 0.28125 8.20312V13.5937C0.28125 14.3692 0.912012 15 1.6875 15H7.3125C8.08799 15 8.71875 14.3692 8.71875 13.5937V8.20312C8.71875 7.20117 8.01621 6.36064 7.07812 6.14678ZM4.5 12.1875C3.59531 12.1875 2.85938 11.4516 2.85938 10.5469C2.85938 9.42099 4.06436 8.39443 4.20176 8.28105C4.3749 8.13808 4.6251 8.13808 4.79824 8.28105C4.93564 8.39443 6.14062 9.42099 6.14062 10.5469C6.14062 11.4516 5.40469 12.1875 4.5 12.1875Z" fill="#2A2A2A"/>
<path d="M3.79688 10.5469C3.79688 10.9345 4.1124 11.25 4.5 11.25C4.8876 11.25 5.20312 10.9345 5.20312 10.5469C5.20312 10.1741 4.89715 9.73269 4.60934 9.40746C4.5513 9.34187 4.4487 9.34187 4.39063 9.40743C4.10282 9.73245 3.79688 10.1738 3.79688 10.5469Z" fill="#2A2A2A"/>
<path d="M1.92188 4.45312V5.00977C1.92188 5.09065 1.98747 5.15625 2.06836 5.15625H6.93164C7.01253 5.15625 7.07812 5.09065 7.07812 5.00977V4.45312C7.07812 4.19423 6.86827 3.98438 6.60938 3.98438H2.39062C2.13173 3.98438 1.92188 4.19423 1.92188 4.45312Z" fill="#2A2A2A"/>
</svg>
