<svg width="15" height="15" viewBox="0 0 15 15" fill="none" xmlns="http://www.w3.org/2000/svg">
<path d="M13.8339 1.15631C12.2913 -0.385438 9.78209 -0.385438 8.23949 1.15631L4.97799 4.41782L8.68094 8.12078C9.44307 7.48612 10.4093 7.08873 11.4762 7.08873C12.0882 7.08873 12.6705 7.21585 13.2004 7.44285L13.8339 6.75073C15.376 5.20855 15.376 2.69894 13.8339 1.15631Z" fill="#2A2A2A"/>
<path d="M8.06454 8.7474L4.35644 5.03932L1.16431 8.23458C-0.377849 9.77674 -0.377849 12.2864 1.16431 13.829C2.70688 15.3706 5.24536 15.4 6.78799 13.8582L7.4351 13.208C7.20811 12.6782 7.08099 12.0958 7.08099 11.4839C7.08102 10.4444 7.45895 9.50074 8.06454 8.7474Z" fill="#2A2A2A"/>
<path d="M7.96005 11.4839C7.96005 13.2752 9.30457 14.7372 11.0367 14.9557V8.01208C9.30457 8.2306 7.96005 9.69249 7.96005 11.4839Z" fill="#2A2A2A"/>
<path d="M11.9157 8.01208V14.9557C13.6478 14.7372 14.9923 13.2752 14.9923 11.4839C14.9923 9.69252 13.6478 8.2306 11.9157 8.01208Z" fill="#2A2A2A"/>
</svg>
