<svg width="15" height="15" viewBox="0 0 15 15" fill="none" xmlns="http://www.w3.org/2000/svg">
<path d="M15 7.37052C15 6.13725 14.3424 5.17129 13.5028 5.17129C12.6631 5.17129 12.0055 6.13725 12.0055 7.37052C12.0055 8.41572 12.4779 9.26865 13.1331 9.50454V11.5287C13.1331 12.9962 11.9393 14.19 10.4719 14.19H5.07811C3.61065 14.19 2.41686 12.9962 2.41686 11.5287V7.46292H3.19557V8.68266C3.19557 10.5577 4.72106 12.0831 6.59606 12.0831C8.47106 12.0831 9.99655 10.5577 9.99655 8.68266V4.31059C10.6537 4.14493 11.1424 3.55059 11.1424 2.84269C11.1424 2.00706 10.4626 1.32726 9.62693 1.32726C8.7913 1.32726 8.1115 2.00706 8.1115 2.84269C8.1115 3.55059 8.60013 4.14501 9.25731 4.31059V8.68266C9.25731 10.1501 8.06352 11.3439 6.59606 11.3439C5.1286 11.3439 3.93481 10.1501 3.93481 8.68266V7.46292H6.76084C6.96494 7.46292 7.13046 7.29748 7.13046 7.0933V0.440175C7.13046 0.235998 6.96494 0.0705566 6.76084 0.0705566H0.369618C0.165515 0.0705566 0 0.235998 0 0.440175V7.0933C0 7.29748 0.165515 7.46292 0.369618 7.46292H1.67762V11.5287C1.67762 13.4037 3.20311 14.9292 5.07811 14.9292H10.4718C12.3468 14.9292 13.8723 13.4037 13.8723 11.5287V9.50454C14.5275 9.26865 15 8.41565 15 7.37052ZM8.85081 2.84269C8.85081 2.41467 9.19899 2.06649 9.62701 2.06649C10.055 2.06649 10.4032 2.41467 10.4032 2.84269C10.4032 3.27071 10.055 3.61889 9.62701 3.61889C9.19899 3.61889 8.85081 3.27071 8.85081 2.84269Z" fill="#2A2A2A"/>
</svg>
