<svg width="11" height="15" viewBox="0 0 11 15" fill="none" xmlns="http://www.w3.org/2000/svg">
<path d="M8.19446 5.50835C7.62687 5.50835 7.11143 5.71544 6.70181 6.04658C6.52813 5.91038 6.39851 5.75544 6.33927 5.56658C7.42231 5.15139 8.19446 4.10987 8.19446 2.88152C8.19446 1.28962 6.90383 0 5.31193 0C3.72054 0 2.43041 1.29013 2.43041 2.88152C2.43041 4.0962 3.18535 5.13063 4.24965 5.55494C3.72965 6.49671 0.415222 6.65721 0.415222 8.80608C0.415222 10.0233 0.861805 11.3853 1.59699 12.5175C1.48864 13.119 1.5813 13.6846 1.90687 14.1403C2.30282 14.6952 2.98332 14.9995 3.82181 14.9995C4.11801 14.9995 4.42889 14.957 4.74535 14.8835C4.93168 14.9159 5.11953 14.9377 5.31143 14.9377C7.88712 14.9377 9.99345 11.8294 10.1889 9.19797C10.4365 8.82228 10.5843 8.3762 10.5843 7.89772C10.5854 6.58177 9.51244 5.50835 8.19446 5.50835ZM8.23193 9.66987C8.85877 10.6091 8.10434 12.2658 6.51902 13.398C4.91649 14.5423 3.07699 14.7144 2.41016 13.7818C1.74383 12.8491 2.50282 11.1651 4.10586 10.0197C5.03497 9.35544 6.037 9.02987 6.85117 9.04557C6.58636 8.7362 6.42079 8.33873 6.42079 7.89924C6.42079 6.91949 7.21472 6.12608 8.19396 6.12608C9.1732 6.12608 9.96712 6.91949 9.96712 7.89924C9.96813 8.86683 9.19294 9.64911 8.23193 9.66987Z" fill="#2A2A2A"/>
<path d="M5.80509 10.8354C5.80509 10.8354 5.61674 9.79696 5.02636 10.0967C4.43598 10.3985 4.83851 11.5959 5.64408 12.3473C7.04003 11.6759 7.60408 10.8709 7.09066 10.4208C6.57725 9.97063 5.80509 10.8354 5.80509 10.8354Z" fill="#2A2A2A"/>
</svg>
