<svg width="15" height="15" viewBox="0 0 15 15" fill="none" xmlns="http://www.w3.org/2000/svg">
<path d="M2.21399 0H7.94875V0.882273H2.21399V0Z" fill="#2A2A2A"/>
<path d="M2.65513 4.41137H3.5374V5.29364H2.65513V4.41137Z" fill="#2A2A2A"/>
<path d="M7.26006 10.0474C7.73993 8.5322 8.95535 7.83785 10.1544 7.9447V0.882275C9.90594 0.882275 8.16853 0.882273 7.94875 0.882273L7.94876 1.76455H2.21398L2.21399 0.882273L0.00830078 0.882275V13.2341H7.43128C7.03479 12.226 6.93726 11.0667 7.26006 10.0474ZM5.30194 3.5291H8.3899V4.41137H5.30194V3.5291ZM5.30194 5.29364H8.3899V6.17592H5.30194V5.29364ZM1.77285 3.5291H4.41967V6.17592H1.77285V3.5291ZM6.18422 9.70501H1.77285V8.82273H6.18422V9.70501ZM6.18422 7.94046H1.77285V7.05819H6.18422V7.94046Z" fill="#2A2A2A"/>
<path d="M14.8392 10.3138C14.375 8.84832 13.0254 8.43939 11.8837 9.17429C11.6342 9.3349 11.3082 9.33619 11.0567 9.17429C9.89385 8.42586 8.55821 8.87097 8.10119 10.3138C7.65943 11.7084 8.20891 13.5401 9.34637 14.4613C9.89118 14.9025 10.5614 15.1266 11.2302 14.9258L11.2362 14.924C11.3082 14.9022 11.3989 14.8877 11.4752 14.8893C11.5529 14.8898 11.63 14.9015 11.704 14.924L11.7096 14.9256C12.3264 15.1108 12.9956 14.9459 13.594 14.4613C14.7308 13.5408 15.2813 11.7094 14.8392 10.3138ZM11.0368 12.3509H10.1545V11.4696H11.0368V12.3509ZM12.8013 12.3509H11.919V11.4696H12.8013V12.3509Z" fill="#2A2A2A"/>
</svg>
