<svg width="15" height="15" viewBox="0 0 15 15" fill="none" xmlns="http://www.w3.org/2000/svg">
<path d="M14.9198 7.47536L12.5149 0.868157C12.3945 0.537249 12.1524 0.27305 11.8333 0.124222C11.5141 -0.0245771 11.1561 -0.0402509 10.8252 0.0801886L9.86168 0.430872C9.6336 0.51387 9.516 0.766058 9.59903 0.994134L12.605 9.25319C12.688 9.48126 12.9402 9.59883 13.1683 9.51583L14.1319 9.16515C14.4628 9.04471 14.7269 8.8026 14.8758 8.48344C15.0246 8.16428 15.0402 7.80627 14.9198 7.47536Z" fill="#2A2A2A"/>
<path d="M2.05078 6.50391H9.375C9.69861 6.50391 9.96094 6.24159 9.96094 5.91797C9.96094 5.59436 9.69861 5.33203 9.375 5.33203H2.05078C1.72717 5.33203 1.46484 5.59436 1.46484 5.91797C1.46484 6.24159 1.72717 6.50391 2.05078 6.50391Z" fill="#2A2A2A"/>
<path d="M3.46424 4.45313H8.20312C8.68855 4.45313 9.08203 4.05964 9.08203 3.57422C9.08203 3.0888 8.68855 2.69532 8.20312 2.69532H6.18331C5.67029 2.69532 5.19123 2.43894 4.90664 2.01208C4.79672 1.8472 4.59003 1.77627 4.40203 1.83897L3.10989 2.26969C2.65236 2.42218 2.34375 2.85036 2.34375 3.33264C2.34375 3.95148 2.8454 4.45313 3.46424 4.45313Z" fill="#2A2A2A"/>
<path d="M3.22266 11.1914H8.20312V12.0703H3.22266V11.1914Z" fill="#2A2A2A"/>
<path d="M10.3271 8.28039V7.82227C10.3271 7.57957 10.1304 7.38282 9.8877 7.38282H1.53809C1.29539 7.38282 1.09863 7.57957 1.09863 7.82227V8.28039C0.475957 8.38533 0 8.92802 0 9.58009V12.8027C0 14.0143 0.985693 15 2.19727 15H9.22852C10.4401 15 11.4258 14.0143 11.4258 12.8027V9.58009C11.4258 8.92802 10.9498 8.38533 10.3271 8.28039ZM9.08203 12.5098C9.08203 12.7525 8.88527 12.9492 8.64258 12.9492H2.7832C2.54051 12.9492 2.34375 12.7525 2.34375 12.5098V10.752C2.34375 10.5093 2.54051 10.3125 2.7832 10.3125H8.64258C8.88527 10.3125 9.08203 10.5093 9.08203 10.752V12.5098Z" fill="#2A2A2A"/>
</svg>
