<svg width="15" height="15" viewBox="0 0 15 15" fill="none" xmlns="http://www.w3.org/2000/svg">
<path d="M8.06563 10.9162C8.91003 10.0718 9.64415 9.33768 10.2832 8.69865V5.7208C10.2832 5.06109 9.66196 4.48242 8.95371 4.48242H8.4082C8.4082 4.17914 8.4082 3.78064 8.4082 3.48633H8.69792C9.16787 3.48633 9.58008 3.08227 9.58008 2.62163V0.920596C9.58008 0.486035 9.20282 0 8.69792 0H7.55417V2.60742H6.67526V0H5.5957V2.60742H4.7168V0H3.56657V2.60742H2.68767V0H1.61458C1.10968 0 0.732422 0.486035 0.732422 0.920596V2.62163C0.732422 3.08227 1.14463 3.48633 1.61458 3.48633H1.8457V4.48242H1.38809C0.702539 4.48242 0 5.04738 0 5.7208V13.7104C0 14.3612 0.687568 15 1.38809 15H8.16372L8.06563 14.9019C6.9668 13.8031 6.9668 12.0151 8.06563 10.9162ZM5.5957 10.1807V11.6491C5.5957 11.8918 5.39895 12.0886 5.15625 12.0886C4.91355 12.0886 4.7168 11.8918 4.7168 11.6491V10.1807H3.24835C3.00565 10.1807 2.8089 9.98391 2.8089 9.74121C2.8089 9.49852 3.00565 9.30176 3.24835 9.30176H4.7168V7.83331C4.7168 7.59062 4.91355 7.39386 5.15625 7.39386C5.39895 7.39386 5.5957 7.59062 5.5957 7.83331V9.30176H7.06415C7.30685 9.30176 7.5036 9.49852 7.5036 9.74121C7.5036 9.98391 7.30685 10.1807 7.06415 10.1807H5.5957Z" fill="#2A2A2A"/>
<path d="M14.432 8.83864L14.2804 8.68712C13.5221 7.92883 12.2915 7.93334 11.5378 8.68703L10.4556 9.76925L13.3499 12.6635L14.432 11.5814C15.1881 10.8252 15.1881 9.59482 14.432 8.83864Z" fill="#2A2A2A"/>
<path d="M8.68711 11.5377C7.93093 12.2939 7.93093 13.5243 8.68711 14.2805L8.83863 14.432C9.59478 15.1881 10.8252 15.1882 11.5813 14.432L12.7283 13.285L9.83408 10.3908L8.68711 11.5377Z" fill="#2A2A2A"/>
</svg>
