<svg width="15" height="15" viewBox="0 0 15 15" fill="none" xmlns="http://www.w3.org/2000/svg">
<path d="M8.55864 8.09942C8.38819 8.09942 8.25 7.96122 8.25 7.79078V6.38028H6.75V7.79078C6.75 7.96122 6.6118 8.09942 6.44136 8.09942H5.03086V9.59633H6.44136C6.6118 9.59633 6.75 9.73453 6.75 9.90497V11.3155H8.24691V9.90497C8.24691 9.73453 8.38511 9.59633 8.55555 9.59633H9.96913V8.09942H8.55864Z" fill="#2A2A2A"/>
<path d="M12.8704 3.45127H2.12963C1.14815 3.45127 0 4.00991 0 5.58089V12.2877C0 13.8587 1.14815 14.4173 2.12963 14.4173H12.8704C13.8519 14.4173 15 13.8587 15 12.2877V5.58089C15 4.00991 13.8549 3.45127 12.8704 3.45127ZM10.5864 9.75373C10.5864 10.0077 10.3805 10.2136 10.1265 10.2136H8.86728V11.4729C8.86728 11.7268 8.66138 11.9327 8.40741 11.9327H6.59259C6.33862 11.9327 6.13272 11.7268 6.13272 11.4729V10.2136H4.87654C4.62257 10.2153 4.41528 10.0108 4.41358 9.75681V7.942C4.41358 7.68803 4.61948 7.48213 4.87346 7.48213H6.13272V6.22287C6.13272 5.96889 6.33862 5.76299 6.59259 5.76299H8.40432C8.65829 5.76299 8.8642 5.96889 8.8642 6.22287V7.48213H10.1235C10.3774 7.48043 10.5847 7.68494 10.5864 7.93892V9.75373Z" fill="#2A2A2A"/>
<path d="M9.48437 0.583982C9.45053 0.582053 9.41658 0.582053 9.38271 0.583982H5.61728C5.12203 0.555934 4.6978 0.934638 4.66975 1.42985C4.66783 1.46373 4.66783 1.49764 4.66975 1.53151V2.9204H5.28704L5.29012 1.53151C5.29012 1.44201 5.29012 1.20127 5.62037 1.20127H9.38271C9.71295 1.20127 9.71295 1.43892 9.71295 1.53151V2.9204H10.3302V1.53151C10.3583 1.03626 9.97958 0.612069 9.48437 0.583982Z" fill="#2A2A2A"/>
</svg>
