<svg width="13" height="15" viewBox="0 0 13 15" fill="none" xmlns="http://www.w3.org/2000/svg">
<path d="M12.3316 0.210682C12.2884 0.0831925 12.1856 0 12.0722 0C1.17636 0 0 5.4832 0 7.8409C0 8.6891 0.154973 9.48136 0.460998 10.1952C0.508164 10.3057 0.601364 10.3759 0.703565 10.3786C0.800134 10.3752 0.901783 10.3166 0.95287 10.2082C1.68844 8.66455 3.77158 4.85454 7.21189 2.83024C7.35284 2.74842 7.52129 2.81864 7.58809 2.98707C7.65547 3.15684 7.59706 3.36139 7.45783 3.44321C7.19842 3.59594 6.94911 3.7623 6.70486 3.93479C6.61166 4.00091 6.52125 4.07116 6.42974 4.14C6.29216 4.24365 6.1563 4.34931 6.02377 4.45842C5.89183 4.56616 5.76155 4.67662 5.63352 4.78979C5.59365 4.82523 5.55549 4.86138 5.51616 4.89752C2.09214 7.99569 0 12.9382 0 14.6591C0 14.8473 0.125784 15 0.280758 15C0.435731 15 0.561515 14.8473 0.561515 14.6591C0.561515 14.1096 0.869778 12.9955 1.45316 11.6666C2.29991 12.5073 3.43918 12.9546 4.77275 12.9546C8.37812 12.9546 9.13335 8.78865 9.53873 6.55025C10.0845 3.53797 11.2856 1.7782 12.2704 0.581613C12.3513 0.484102 12.3749 0.338171 12.3316 0.210682Z" fill="#2A2A2A"/>
</svg>
