<svg width="18" height="18" viewBox="0 0 18 18" fill="none" xmlns="http://www.w3.org/2000/svg">
<path d="M6.53929 0H1.37142C0.61573 0 0.00100461 0.614725 0.00100461 1.37042V6.53828C0.00100461 7.29398 0.61573 7.9087 1.37142 7.9087H6.53929C7.29498 7.9087 7.90971 7.29398 7.90971 6.53828V1.37042C7.90958 0.614725 7.29498 0 6.53929 0Z" fill="#2A2A2A"/>
<path d="M16.6295 0H11.4617C10.706 0 10.0912 0.614725 10.0912 1.37042V6.53828C10.0912 7.29398 10.706 7.9087 11.4617 7.9087H16.6295C17.3852 7.9087 17.9999 7.29398 17.9999 6.53828V1.37042C17.9999 0.614725 17.3852 0 16.6295 0Z" fill="#2A2A2A"/>
<path d="M6.53834 10.0913H1.37048C0.614786 10.0913 6.10352e-05 10.706 6.10352e-05 11.4617V16.6295C6.10352e-05 17.3852 0.614786 17.9999 1.37048 17.9999H6.53834C7.29404 17.9999 7.90876 17.3852 7.90876 16.6295V11.4617C7.90864 10.706 7.29404 10.0913 6.53834 10.0913Z" fill="#2A2A2A"/>
<path d="M16.6295 10.0913H11.4617C10.706 10.0913 10.0912 10.706 10.0912 11.4617V16.6296C10.0912 17.3853 10.706 18 11.4617 18H16.6295C17.3852 17.9999 17.9999 17.3852 17.9999 16.6295V11.4617C17.9999 10.706 17.3852 10.0913 16.6295 10.0913Z" fill="#2A2A2A"/>
</svg>
