<svg width="15" height="15" viewBox="0 0 15 15" fill="none" xmlns="http://www.w3.org/2000/svg">
<path d="M12.8037 2.19637C9.8747 -0.732285 5.12579 -0.732611 2.19649 2.19637C-0.732489 5.12534 -0.732162 9.87425 2.19649 12.8036C5.12546 15.7319 9.87437 15.7322 12.8037 12.8036C15.7323 9.87425 15.732 5.12567 12.8037 2.19637ZM8.47804 10.7609C8.47804 11.3012 8.04009 11.7392 7.49976 11.7392C6.95942 11.7392 6.52147 11.3012 6.52147 10.7609V6.84777C6.52147 6.30743 6.95942 5.86949 7.49976 5.86949C8.04009 5.86949 8.47804 6.30743 8.47804 6.84777V10.7609ZM7.48247 5.17556C6.91898 5.17556 6.54332 4.77642 6.55506 4.28369C6.54332 3.76716 6.91898 3.38009 7.49389 3.38009C8.06912 3.38009 8.43304 3.76749 8.4451 4.28369C8.44478 4.77642 8.06944 5.17556 7.48247 5.17556Z" fill="#2A2A2A"/>
</svg>
