<svg width="13" height="15" viewBox="0 0 13 15" fill="none" xmlns="http://www.w3.org/2000/svg">
<path d="M9.99684 4.40429H12.944V1.9043C12.944 0.854268 12.0897 0 11.0397 0H9.99684V4.40429Z" fill="#2A2A2A"/>
<path d="M9.99684 5.28318H12.944V9.71675H9.99684V5.28318Z" fill="#2A2A2A"/>
<path d="M9.99684 10.5957V15H11.0397C12.0897 15 12.944 14.1457 12.944 13.0957V10.5957H9.99684Z" fill="#2A2A2A"/>
<path d="M4.55758 7.08984C5.18861 7.08984 5.70016 6.57829 5.70016 5.94727C5.70016 5.31624 5.18861 4.80469 4.55758 4.80469C3.92655 4.80469 3.415 5.31624 3.415 5.94727C3.415 6.57829 3.92655 7.08984 4.55758 7.08984Z" fill="#2A2A2A"/>
<path d="M4.55758 7.96875C3.57877 7.96875 2.77973 8.75326 2.75635 9.72656H6.35884C6.33543 8.75326 5.53639 7.96875 4.55758 7.96875Z" fill="#2A2A2A"/>
<path d="M9.11793 0H0.0559082V15H9.11793V0ZM2.53609 5.94727C2.53609 4.83261 3.44292 3.92578 4.55758 3.92578C5.67224 3.92578 6.57906 4.83261 6.57906 5.94727C6.57906 6.5451 6.31797 7.08293 5.90409 7.45336C6.70129 7.91842 7.23824 8.78288 7.23824 9.77051V10.6055H1.87691V9.77051C1.87691 8.78288 2.41384 7.91842 3.21106 7.45336C2.79719 7.08293 2.53609 6.5451 2.53609 5.94727Z" fill="#2A2A2A"/>
</svg>
