<svg width="15" height="15" viewBox="0 0 15 15" fill="none" xmlns="http://www.w3.org/2000/svg">
<path d="M15 3.46264V0.574713C15 0.257318 14.8032 0 14.5605 0H0.439453C0.196758 0 0 0.257318 0 0.574713V3.46264H15Z" fill="#2A2A2A"/>
<path d="M6.61743 8.07951H8.38256C8.6269 8.07951 8.82568 7.81954 8.82568 7.5C8.82568 7.18046 8.6269 6.9205 8.38256 6.9205H6.61743C6.37309 6.9205 6.17431 7.18046 6.17431 7.5C6.17431 7.81954 6.37309 8.07951 6.61743 8.07951Z" fill="#2A2A2A"/>
<path d="M0.882573 4.61206V14.4253C0.882573 14.7427 1.07933 15 1.32203 15H13.678C13.9207 15 14.1174 14.7427 14.1174 14.4253V4.61206H0.882573ZM6.61744 5.77106H8.38257C9.11154 5.77106 9.7046 6.54666 9.7046 7.49999C9.7046 8.45333 9.11154 9.22892 8.38257 9.22892H6.61744C5.88847 9.22892 5.29542 8.45333 5.29542 7.49999C5.29542 6.54666 5.88847 5.77106 6.61744 5.77106Z" fill="#2A2A2A"/>
</svg>
