<svg width="15" height="15" viewBox="0 0 15 15" fill="none" xmlns="http://www.w3.org/2000/svg">
<path d="M14.0026 7.69434C13.9422 7.57085 13.9422 7.42923 14.0026 7.30577L14.562 6.1613C14.8735 5.52407 14.6267 4.76455 14.0002 4.43212L12.8749 3.83505C12.7535 3.77066 12.6703 3.65605 12.6465 3.52073L12.4264 2.26598C12.3039 1.56737 11.6577 1.09792 10.9555 1.19726L9.69418 1.37568C9.55804 1.3949 9.42342 1.35113 9.32466 1.25559L8.40911 0.369897C7.89932 -0.123284 7.10069 -0.123313 6.59093 0.369897L5.67535 1.25568C5.57656 1.35125 5.44194 1.39493 5.30583 1.37577L4.04451 1.19735C3.34212 1.09795 2.69613 1.56746 2.57358 2.26607L2.35351 3.52076C2.32975 3.65611 2.24651 3.77069 2.12514 3.83511L0.99985 4.43218C0.37331 4.76458 0.126515 5.52415 0.437998 6.16139L0.997419 7.30583C1.05777 7.42932 1.05777 7.57094 0.997419 7.69439L0.437968 8.83884C0.126485 9.47607 0.373281 10.2356 0.999821 10.568L2.12511 11.1651C2.24651 11.2295 2.32975 11.3441 2.35351 11.4794L2.57358 12.7342C2.68515 13.3701 3.23047 13.8161 3.85722 13.8161C3.91895 13.8161 3.98158 13.8118 4.04454 13.8028L5.30586 13.6244C5.44188 13.6051 5.57659 13.649 5.67537 13.7445L6.59093 14.6302C6.84587 14.8768 7.17288 15.0001 7.50001 15.0001C7.82704 15.0001 8.15426 14.8768 8.40908 14.6302L9.32466 13.7445C9.42345 13.649 9.5581 13.6053 9.69418 13.6244L10.9555 13.8028C11.658 13.9022 12.3039 13.4327 12.4264 12.7341L12.6465 11.4794C12.6703 11.3441 12.7535 11.2295 12.8749 11.1651L14.0002 10.568C14.6267 10.2356 14.8735 9.47604 14.562 8.83881L14.0026 7.69434ZM5.76971 3.60695C6.64428 3.60695 7.35581 4.31848 7.35581 5.19304C7.35581 6.06761 6.64428 6.77914 5.76971 6.77914C4.89514 6.77914 4.18361 6.06761 4.18361 5.19304C4.18361 4.31848 4.89514 3.60695 5.76971 3.60695ZM4.95104 10.6607C4.86658 10.7452 4.75587 10.7874 4.64518 10.7874C4.5345 10.7874 4.42376 10.7452 4.33933 10.6607C4.1704 10.4918 4.1704 10.2179 4.33933 10.049L10.0489 4.33937C10.2178 4.17044 10.4918 4.17044 10.6607 4.33937C10.8296 4.50829 10.8296 4.78219 10.6607 4.95111L4.95104 10.6607ZM9.23024 11.3932C8.35567 11.3932 7.64415 10.6817 7.64415 9.8071C7.64415 8.93253 8.35567 8.221 9.23024 8.221C10.1048 8.221 10.8163 8.93253 10.8163 9.8071C10.8163 10.6817 10.1048 11.3932 9.23024 11.3932Z" fill="#2A2A2A"/>
<path d="M9.23023 9.08615C8.8327 9.08615 8.50927 9.40955 8.50927 9.80708C8.50927 10.2046 8.83267 10.528 9.23023 10.528C9.62776 10.528 9.95116 10.2046 9.95116 9.80708C9.95116 9.40955 9.62776 9.08615 9.23023 9.08615Z" fill="#2A2A2A"/>
<path d="M5.7697 4.47206C5.37218 4.47206 5.04877 4.79547 5.04877 5.193C5.04877 5.59052 5.37218 5.91396 5.7697 5.91396C6.16723 5.91396 6.49067 5.59055 6.49067 5.193C6.49064 4.7955 6.16723 4.47206 5.7697 4.47206Z" fill="#2A2A2A"/>
</svg>
