<svg width="12" height="8" viewBox="0 0 12 8" fill="none" xmlns="http://www.w3.org/2000/svg">
<path d="M0.0762541 4.2334C0.183458 4.38005 2.73775 7.82417 6.00005 7.82417C9.26234 7.82417 11.8168 4.38005 11.9238 4.23354C12.0254 4.09441 12.0254 3.90572 11.9238 3.76659C11.8168 3.61994 9.26234 0.175819 6.00005 0.175819C2.73775 0.175819 0.183458 3.61997 0.0762541 3.76647C-0.025418 3.90558 -0.025418 4.09441 0.0762541 4.2334ZM6.00005 0.967024C8.40308 0.967024 10.4844 3.25296 11.1005 4.00026C10.4852 4.74823 8.40823 7.03297 6.00005 7.03297C3.59714 7.03297 1.516 4.74743 0.899638 3.99973C1.51494 3.25179 3.59186 0.967024 6.00005 0.967024Z" fill="#C4C4C4"/>
<path d="M6.00004 6.37362C7.30884 6.37362 8.37368 5.30879 8.37368 3.99999C8.37368 2.69119 7.30884 1.62635 6.00004 1.62635C4.69125 1.62635 3.62641 2.69119 3.62641 3.99999C3.62641 5.30879 4.69125 6.37362 6.00004 6.37362ZM6.00004 2.41758C6.87262 2.41758 7.58245 3.12743 7.58245 3.99999C7.58245 4.87254 6.8726 5.5824 6.00004 5.5824C5.12749 5.5824 4.41764 4.87254 4.41764 3.99999C4.41764 3.12743 5.12747 2.41758 6.00004 2.41758Z" fill="#C4C4C4"/>
</svg>
