<svg width="30" height="28" viewBox="0 0 30 28" fill="none" xmlns="http://www.w3.org/2000/svg">
<path d="M27.5466 2.68204C25.9949 1.01416 23.8206 0.0651552 21.5425 0.0616371C19.2626 0.0642756 17.086 1.01277 15.5319 2.68097L15.0022 3.24066L14.4725 2.68097C11.3888 -0.638021 6.19822 -0.828625 2.87929 2.25516C2.73222 2.39186 2.59018 2.53384 2.45348 2.68097C-0.817827 6.20947 -0.817827 11.6626 2.45348 15.1911L14.2238 27.6037C14.631 28.0336 15.3097 28.052 15.7395 27.6448C15.7536 27.6315 15.7673 27.6178 15.7806 27.6037L27.5467 15.1911C30.8178 11.663 30.8178 6.21017 27.5466 2.68204ZM25.9952 13.7147H25.9942L15.0022 25.3082L4.00922 13.7147C1.51013 11.0186 1.51013 6.8524 4.00922 4.1563C6.27869 1.69654 10.1126 1.54231 12.5723 3.81178C12.6918 3.92197 12.8067 4.03687 12.9169 4.1563L14.2238 5.53513C14.6545 5.96308 15.3499 5.96308 15.7806 5.53513L17.0876 4.15737C19.3571 1.69761 23.191 1.54338 25.6507 3.81285C25.7701 3.92304 25.885 4.03794 25.9952 4.15737C28.5161 6.85774 28.5345 11.0316 25.9952 13.7147Z" fill="white"/>
</svg>
