<svg width="10" height="10" viewBox="0 0 10 10" fill="none" xmlns="http://www.w3.org/2000/svg">
<path fill-rule="evenodd" clip-rule="evenodd" d="M9.76465 3.86133C9.90195 3.89121 10 4.01289 10 4.15332V5.84668C10 5.98711 9.90195 6.10879 9.76465 6.13867L8.99609 6.30566C8.9293 6.51035 8.84648 6.70996 8.74883 6.90215L9.17422 7.56406C9.2502 7.68223 9.23359 7.8375 9.13418 7.93691L7.93691 9.13418C7.8375 9.23359 7.68223 9.2502 7.56406 9.17422L6.90215 8.74883C6.70996 8.84648 6.51035 8.9293 6.30566 8.99609L6.13867 9.76465C6.10879 9.90195 5.98711 10 5.84668 10H4.15332C4.01289 10 3.89121 9.90195 3.86133 9.76465L3.69434 8.99609C3.48965 8.9293 3.29004 8.84648 3.09785 8.74883L2.43594 9.17422C2.31777 9.2502 2.1625 9.23359 2.06309 9.13418L0.86582 7.93691C0.766406 7.8375 0.749805 7.68223 0.825781 7.56406L1.25117 6.90215C1.15352 6.70996 1.0707 6.51035 1.00391 6.30566L0.235352 6.13867C0.0980469 6.10879 0 5.98711 0 5.84668V4.15332C0 4.01289 0.0980469 3.89121 0.235352 3.86133L1.00391 3.69434C1.0707 3.48965 1.15352 3.29004 1.25117 3.09785L0.825781 2.43594C0.749805 2.31777 0.766406 2.1625 0.86582 2.06309L2.06309 0.86582C2.1625 0.766406 2.31777 0.749805 2.43594 0.825781L3.09785 1.25117C3.29004 1.15352 3.48965 1.0707 3.69434 1.00391L3.86133 0.235352C3.89121 0.0980469 4.01289 0 4.15332 0H5.84668C5.98711 0 6.10879 0.0980469 6.13867 0.235352L6.30566 1.00391C6.51035 1.0707 6.70996 1.15352 6.90215 1.25117L7.56406 0.825781C7.68223 0.749805 7.8375 0.766406 7.93691 0.86582L9.13418 2.06309C9.23359 2.1625 9.2502 2.31777 9.17422 2.43594L8.74883 3.09785C8.84648 3.29004 8.9293 3.48965 8.99609 3.69434L9.76465 3.86133ZM6.79277 5C6.79277 4.01152 5.98848 3.20723 5 3.20723C4.01152 3.20723 3.20723 4.01152 3.20723 5C3.20723 5.98848 4.01152 6.79277 5 6.79277C5.98848 6.79277 6.79277 5.98848 6.79277 5Z" fill="#C4C4C4"/>
</svg>
