<svg width="10" height="10" viewBox="0 0 10 10" fill="none" xmlns="http://www.w3.org/2000/svg">
<path d="M9.65111 4.75819L8.43488 4.15966L5.76091 5.47564C5.54463 5.58209 5.30165 5.6384 5.05838 5.6384C4.8151 5.6384 4.57212 5.58209 4.35584 5.47564L1.68188 4.15966L0.46564 4.75819C0.371148 4.80467 0.311516 4.89998 0.311516 5.00423C0.311516 5.10863 0.371148 5.20394 0.46564 5.25042L4.60386 7.28708C4.74612 7.35717 4.90217 7.39206 5.05838 7.39206C5.21443 7.39206 5.37063 7.35717 5.51289 7.28708L9.65111 5.25042C9.7456 5.20394 9.80524 5.10863 9.80524 5.00423C9.80524 4.89998 9.7456 4.80467 9.65111 4.75819Z" fill="#C4C4C4"/>
<path d="M9.65111 7.06245L8.43488 6.46376L5.76091 7.7799C5.54463 7.88635 5.30165 7.94251 5.05838 7.94251C4.8151 7.94251 4.57212 7.88635 4.35584 7.7799L1.68188 6.46376L0.46564 7.06245C0.371148 7.10878 0.311516 7.20424 0.311516 7.30849C0.311516 7.41274 0.371148 7.50805 0.46564 7.55468L4.60386 9.59134C4.74612 9.66128 4.90217 9.69632 5.05838 9.69632C5.21443 9.69632 5.37063 9.66128 5.51289 9.59134L9.65111 7.55468C9.7456 7.50805 9.80524 7.41274 9.80524 7.30849C9.80524 7.20409 9.7456 7.10878 9.65111 7.06245Z" fill="#C4C4C4"/>
<path d="M0.46564 2.94677L4.60386 4.98357C4.74612 5.05352 4.90217 5.08856 5.05838 5.08856C5.21458 5.08856 5.37063 5.05352 5.51289 4.98357L9.65111 2.94677C9.7456 2.90029 9.80524 2.80498 9.80524 2.70073C9.80524 2.59633 9.7456 2.50102 9.65111 2.45454L5.51289 0.417888C5.22823 0.277859 4.88853 0.277859 4.60386 0.417888L0.46564 2.45454C0.371148 2.50102 0.311516 2.59633 0.311516 2.70073C0.311516 2.80498 0.371148 2.90029 0.46564 2.94677Z" fill="#C4C4C4"/>
</svg>
