<svg width="10" height="14" viewBox="0 0 10 14" fill="none" xmlns="http://www.w3.org/2000/svg">
<path fill-rule="evenodd" clip-rule="evenodd" d="M9.425 8.51666C9.76667 8.59166 10 8.8875 10 9.22916V13.2708C10 13.6708 9.67083 14 9.27083 14H6.45833V7.89583L9.425 8.51666ZM8.75 12.4375C8.75 12.2667 8.60833 12.125 8.4375 12.125H7.8125C7.64167 12.125 7.5 12.2667 7.5 12.4375C7.5 12.6083 7.64167 12.75 7.8125 12.75H8.4375C8.60833 12.75 8.75 12.6083 8.75 12.4375ZM8.75 11.1875C8.75 11.0167 8.60833 10.875 8.4375 10.875H7.8125C7.64167 10.875 7.5 11.0167 7.5 11.1875C7.5 11.3583 7.64167 11.5 7.8125 11.5H8.4375C8.60833 11.5 8.75 11.3583 8.75 11.1875ZM8.75 9.9375C8.75 9.76666 8.60833 9.625 8.4375 9.625H7.8125C7.64167 9.625 7.5 9.76666 7.5 9.9375C7.5 10.1083 7.64167 10.25 7.8125 10.25H8.4375C8.60833 10.25 8.75 10.1083 8.75 9.9375Z" fill="#C4C4C4"/>
<path fill-rule="evenodd" clip-rule="evenodd" d="M5.42916 0.968079C5.78332 1.04818 6.04166 1.46585 6.04166 1.9579V13.6298H4.27083V10.626C4.27083 10.071 3.94583 9.62471 3.54166 9.62471H2.5C2.09583 9.62471 1.77083 10.071 1.77083 10.626V13.6298H0.416666C0.1875 13.6298 0 13.3723 0 13.0576V1.00241C0 0.710612 0.0958332 0.430258 0.258333 0.235727C0.420833 0.0469174 0.637499 -0.0331836 0.849999 0.0125884L5.42916 0.968079ZM2.60416 7.90826C2.60416 7.67368 2.4625 7.47915 2.29166 7.47915H1.66666C1.49583 7.47915 1.35416 7.67368 1.35416 7.90826C1.35416 8.14284 1.49583 8.33737 1.66666 8.33737H2.29166C2.4625 8.33737 2.60416 8.14284 2.60416 7.90826ZM2.60416 6.19181C2.60416 5.95723 2.4625 5.7627 2.29166 5.7627H1.66666C1.49583 5.7627 1.35416 5.95723 1.35416 6.19181C1.35416 6.42639 1.49583 6.62092 1.66666 6.62092H2.29166C2.4625 6.62092 2.60416 6.42639 2.60416 6.19181ZM2.60416 4.47536C2.60416 4.24078 2.4625 4.04625 2.29166 4.04625H1.66666C1.49583 4.04625 1.35416 4.24078 1.35416 4.47536C1.35416 4.70994 1.49583 4.90447 1.66666 4.90447H2.29166C2.4625 4.90447 2.60416 4.70994 2.60416 4.47536ZM2.60416 2.75891C2.60416 2.52433 2.4625 2.3298 2.29166 2.3298H1.66666C1.49583 2.3298 1.35416 2.52433 1.35416 2.75891C1.35416 2.99349 1.49583 3.18802 1.66666 3.18802H2.29166C2.4625 3.18802 2.60416 2.99349 2.60416 2.75891ZM4.68749 7.90826C4.68749 7.67368 4.54583 7.47915 4.37499 7.47915H3.74999C3.57916 7.47915 3.43749 7.67368 3.43749 7.90826C3.43749 8.14284 3.57916 8.33737 3.74999 8.33737H4.37499C4.54583 8.33737 4.68749 8.14284 4.68749 7.90826ZM4.68749 6.19181C4.68749 5.95723 4.54583 5.7627 4.37499 5.7627H3.74999C3.57916 5.7627 3.43749 5.95723 3.43749 6.19181C3.43749 6.42639 3.57916 6.62092 3.74999 6.62092H4.37499C4.54583 6.62092 4.68749 6.42639 4.68749 6.19181ZM4.68749 4.47536C4.68749 4.24078 4.54583 4.04625 4.37499 4.04625H3.74999C3.57916 4.04625 3.43749 4.24078 3.43749 4.47536C3.43749 4.70994 3.57916 4.90447 3.74999 4.90447H4.37499C4.54583 4.90447 4.68749 4.70994 4.68749 4.47536ZM4.68749 2.75891C4.68749 2.52433 4.54583 2.3298 4.37499 2.3298H3.74999C3.57916 2.3298 3.43749 2.52433 3.43749 2.75891C3.43749 2.99349 3.57916 3.18802 3.74999 3.18802H4.37499C4.54583 3.18802 4.68749 2.99349 4.68749 2.75891Z" fill="#C4C4C4"/>
</svg>
