<svg width="8" height="10" viewBox="0 0 8 10" fill="none" xmlns="http://www.w3.org/2000/svg">
<path d="M7.64552 1.6004C7.60232 1.50646 7.53115 1.4408 7.44925 1.41939L3.0951 0.054739C2.95166 0.0185774 2.81009 0.121608 2.76036 0.299991L1.10069 5.781L1.65485 6.04343L3.22765 0.831911L7.01071 2.08686C6.7745 3.03898 6.21227 5.02646 5.67334 6.87696C5.20341 8.49151 4.93317 9.04444 4.41926 9.15736L4.41802 9.15454C3.36767 9.34605 3.38663 7.60545 3.38663 7.60545L0.0323142 5.84403C-0.20607 7.80807 0.954769 8.2804 0.954769 8.2804L3.41071 9.72989C3.41071 9.72989 3.79455 9.96787 4.21133 9.94343C5.33519 9.90888 5.73022 8.84807 6.22501 7.14848C6.94001 4.69191 7.66572 1.93959 7.67287 1.91029C7.69836 1.80625 7.68826 1.69393 7.64552 1.6004Z" fill="#C4C4C4"/>
<path d="M5.66076 3.81069C5.6864 3.81978 5.71282 3.82463 5.73908 3.82463C5.86837 3.82463 5.98679 3.71251 6.02299 3.54241C6.06604 3.33797 5.97296 3.12686 5.816 3.0713L4.53814 2.55858C4.3829 2.50262 4.21864 2.62262 4.1759 2.82686C4.13301 3.0311 4.22532 3.24221 4.3829 3.29817L5.66076 3.81069Z" fill="#C4C4C4"/>
<path d="M3.66402 4.3624C3.61289 4.56361 3.69603 4.78038 3.85034 4.84745L5.12152 5.43815C5.15245 5.45148 5.18275 5.45734 5.21337 5.45774C5.33738 5.45855 5.45346 5.35673 5.49495 5.19593C5.54623 4.99512 5.46325 4.77815 5.30831 4.71088L4.0376 4.12079C3.8822 4.05392 3.71592 4.162 3.66402 4.3624Z" fill="#C4C4C4"/>
<path d="M3.55228 5.72101C3.3975 5.65373 3.2306 5.76343 3.17994 5.96525C3.12913 6.16545 3.21398 6.38282 3.3686 6.44848L4.64242 7.03656C4.67318 7.05009 4.70364 7.05595 4.73472 7.05595C4.85842 7.05595 4.97373 6.95353 5.0146 6.79272C5.06541 6.59131 4.98088 6.37434 4.82625 6.30868L3.55228 5.72101Z" fill="#C4C4C4"/>
<path d="M3.50504 2.11149C3.68562 2.11149 3.832 2.29654 3.832 2.52483C3.832 2.75311 3.68562 2.93796 3.50504 2.93796C3.32447 2.93796 3.17792 2.75311 3.17792 2.52483C3.17792 2.29654 3.32447 2.11149 3.50504 2.11149Z" fill="#C4C4C4"/>
<path d="M3.04242 3.64787C3.22315 3.64787 3.36953 3.83292 3.36953 4.061C3.36953 4.28888 3.22315 4.47393 3.04242 4.47393C2.86184 4.47393 2.7153 4.28888 2.7153 4.061C2.7153 3.83292 2.86184 3.64787 3.04242 3.64787Z" fill="#C4C4C4"/>
<path d="M2.54902 5.23312C2.72975 5.23312 2.87614 5.41838 2.87614 5.64686C2.87614 5.87494 2.72975 6.05979 2.54902 6.05979C2.36845 6.05979 2.2219 5.87494 2.2219 5.64686C2.2219 5.41838 2.36845 5.23312 2.54902 5.23312Z" fill="#C4C4C4"/>
</svg>
