<svg width="10" height="10" viewBox="0 0 10 10" fill="none" xmlns="http://www.w3.org/2000/svg">
<path fill-rule="evenodd" clip-rule="evenodd" d="M10 1.76471V2.64706C10 4.10667 8.81255 5.29412 7.35294 5.29412H5.29412V7.35294C5.29412 8.81255 4.10667 10 2.64706 10H1.76471V9.41177H2.64706C2.68294 9.41177 2.71843 9.41078 2.75392 9.40902L0.59098 7.24608C0.589216 7.28157 0.588235 7.31706 0.588235 7.35294V8.23529H0V7.35294C0 5.89333 1.18745 4.70588 2.64706 4.70588H4.70588V2.64706C4.70588 1.18745 5.89333 0 7.35294 0H8.23529V0.588235H7.35294C7.31706 0.588235 7.28157 0.589216 7.24608 0.59098L9.40902 2.75392C9.41078 2.71843 9.41177 2.68294 9.41177 2.64706V1.76471H10ZM2.64706 5.29412C2.33863 5.29412 2.04569 5.36235 1.78275 5.48451L4.51549 8.21706C4.63765 7.95412 4.70588 7.66137 4.70588 7.35294V7.18059L2.81941 5.29412H2.64706ZM3.43255 9.25588C3.72294 9.13549 3.98 8.95078 4.18569 8.71922L1.28078 5.81431C1.04922 6.02 0.864314 6.27706 0.744118 6.56726L3.43255 9.25588ZM4.70588 5.29412H3.65118L4.70588 6.34882V5.29412ZM5.29412 4.70588H6.34882L5.29412 3.65118V4.70588ZM7.35294 4.70588C7.66137 4.70588 7.95412 4.63765 8.21706 4.51549L5.48451 1.78275C5.36235 2.04569 5.29412 2.33863 5.29412 2.64706V2.81941L7.18059 4.70588H7.35294ZM8.71922 4.18569C8.95078 3.98 9.13569 3.72294 9.25588 3.43255L6.56745 0.744118C6.27706 0.864314 6.02 1.04922 5.81431 1.28078L8.71922 4.18569Z" fill="#C4C4C4"/>
</svg>
