<svg width="8" height="8" viewBox="0 0 8 8" fill="none" xmlns="http://www.w3.org/2000/svg">
<path d="M6.15901 0.473073C5.53562 -0.150311 4.52211 -0.152375 3.89872 0.473073L2.33407 2.03773L4.59642 4.30007L6.15901 2.73336C6.78239 2.10791 6.78239 1.09646 6.15901 0.473073ZM4.55514 1.39783L3.84299 2.09965L3.84093 2.10172C3.75836 2.18222 3.62832 2.18015 3.54988 2.09759C3.46937 2.01502 3.47144 1.88498 3.55401 1.80654L4.26821 1.10471L4.27028 1.10265C4.35285 1.02215 4.48289 1.02421 4.56133 1.10678C4.63977 1.18728 4.6377 1.31939 4.55514 1.39783Z" fill="#ADACAC"/>
<path d="M2.04096 2.32878L0.46599 3.90582C-0.15533 4.53127 -0.15533 5.54066 0.46599 6.16611C1.09557 6.78743 2.10908 6.78743 2.73866 6.16611L4.30538 4.5932L2.04096 2.32878Z" fill="#ADACAC"/>
<path d="M7.67 5.43747L5.44274 7.6668C6.07644 8.15188 6.97024 8.09408 7.53376 7.53056C8.09935 6.96704 8.15714 6.07118 7.67 5.43747Z" fill="#ADACAC"/>
<path d="M6.41083 4.81819C5.53355 4.81819 4.82141 5.52827 4.82141 6.40762C4.82141 6.75853 4.937 7.09912 5.14961 7.37572L7.37687 5.14846C7.10027 4.93379 6.76174 4.81819 6.41083 4.81819Z" fill="#ADACAC"/>
</svg>
