<svg width="8" height="8" viewBox="0 0 8 8" fill="none" xmlns="http://www.w3.org/2000/svg">
<path d="M7.9606 4.10457L7.09414 2.82832L7.9606 1.55208C8.0011 1.4912 8.01094 1.41522 7.98736 1.3461C7.96357 1.27697 7.90908 1.22272 7.83974 1.19985L5.01164 0.262351C4.91047 0.228242 4.80107 0.266695 4.74247 0.354585L3.99998 1.46831L3.25749 0.354585C3.19844 0.266242 3.08812 0.228008 2.98832 0.262351L0.160222 1.19985C0.090879 1.22274 0.0363952 1.27699 0.0125985 1.3461C-0.0109794 1.41522 -0.00113572 1.4912 0.0393795 1.55209L0.90584 2.82834L0.0393951 4.10457C-0.0011201 4.16544 -0.0109638 4.24144 0.0126141 4.31057C0.0364108 4.37969 0.0908946 4.43394 0.160238 4.45681L2.98834 5.39431C3.08787 5.42778 3.19858 5.39042 3.2575 5.30208L4 4.18835L4.74249 5.30208C4.80146 5.39051 4.91224 5.42776 5.01166 5.39431L7.83976 4.45681C7.9091 4.43392 7.96358 4.37967 7.98738 4.31057C8.01096 4.24144 8.00111 4.16546 7.9606 4.10457ZM4 3.51887L1.92841 2.82834L4 2.13781L6.07159 2.82834L4 3.51887Z" fill="#ADACAC"/>
<path d="M5.15997 5.83901C4.86497 5.93798 4.53144 5.83065 4.35247 5.56206L4.00002 5.03338L3.64752 5.56206C3.46891 5.83014 3.13578 5.93845 2.83889 5.83854L0.953146 5.21002V6.57829C0.953146 6.67922 1.01769 6.76872 1.11336 6.80053L3.92447 7.73757C3.93294 7.74054 3.94141 7.74284 3.94988 7.74467C3.96636 7.7481 3.98354 7.75017 4.00002 7.75017C4.01765 7.75017 4.03504 7.7481 4.05243 7.74421C4.06021 7.74239 4.06775 7.74032 4.07532 7.73781L6.88666 6.80055C6.98232 6.76872 7.04686 6.67922 7.04686 6.57829V5.21005L5.15997 5.83901Z" fill="#ADACAC"/>
</svg>
