<svg width="20" height="20" viewBox="0 0 20 20" fill="none" xmlns="http://www.w3.org/2000/svg">
<path d="M11.9141 10C11.9141 11.0571 11.0571 11.9141 10 11.9141C8.94287 11.9141 8.08594 11.0571 8.08594 10C8.08594 8.94287 8.94287 8.08594 10 8.08594C11.0571 8.08594 11.9141 8.94287 11.9141 10Z" fill="#999999"/>
<path d="M14.4763 6.61348C14.3843 6.36415 14.2375 6.13847 14.0468 5.95323C13.8615 5.7625 13.636 5.61571 13.3865 5.5237C13.1842 5.44511 12.8802 5.35158 12.3204 5.3261C11.7148 5.29848 11.5332 5.29253 10 5.29253C8.46664 5.29253 8.28506 5.29832 7.6796 5.32594C7.11975 5.35158 6.81564 5.44511 6.61346 5.5237C6.36398 5.61571 6.13831 5.7625 5.95322 5.95323C5.76248 6.13847 5.61569 6.364 5.52353 6.61348C5.44495 6.81581 5.35141 7.11992 5.32593 7.67976C5.29831 8.28523 5.29236 8.46681 5.29236 10.0002C5.29236 11.5334 5.29831 11.715 5.32593 12.3206C5.35141 12.8804 5.44495 13.1844 5.52353 13.3867C5.61569 13.6362 5.76233 13.8617 5.95306 14.047C6.13831 14.2377 6.36383 14.3845 6.61331 14.4765C6.81564 14.5552 7.11975 14.6488 7.6796 14.6742C8.28506 14.7019 8.46649 14.7077 9.99985 14.7077C11.5334 14.7077 11.7149 14.7019 12.3203 14.6742C12.8801 14.6488 13.1842 14.5552 13.3865 14.4765C13.8873 14.2833 14.2831 13.8875 14.4763 13.3867C14.5549 13.1844 14.6484 12.8804 14.6741 12.3206C14.7017 11.715 14.7075 11.5334 14.7075 10.0002C14.7075 8.46681 14.7017 8.28523 14.6741 7.67976C14.6486 7.11992 14.5551 6.81581 14.4763 6.61348ZM10 12.9486C8.37143 12.9486 7.05124 11.6286 7.05124 10C7.05124 8.37144 8.37143 7.05141 10 7.05141C11.6284 7.05141 12.9486 8.37144 12.9486 10C12.9486 11.6286 11.6284 12.9486 10 12.9486ZM13.0652 7.62392C12.6846 7.62392 12.3761 7.31538 12.3761 6.93483C12.3761 6.55428 12.6846 6.24574 13.0652 6.24574C13.4457 6.24574 13.7543 6.55428 13.7543 6.93483C13.7541 7.31538 13.4457 7.62392 13.0652 7.62392Z" fill="#999999"/>
<path d="M10 0C4.478 0 0 4.478 0 10C0 15.522 4.478 20 10 20C15.522 20 20 15.522 20 10C20 4.478 15.522 0 10 0ZM15.7076 12.3674C15.6798 12.9787 15.5826 13.396 15.4407 13.7613C15.1424 14.5326 14.5326 15.1424 13.7613 15.4407C13.3961 15.5826 12.9787 15.6796 12.3676 15.7076C11.7552 15.7355 11.5596 15.7422 10.0002 15.7422C8.44055 15.7422 8.24509 15.7355 7.6326 15.7076C7.02148 15.6796 6.604 15.5826 6.23886 15.4407C5.85556 15.2965 5.50858 15.0705 5.22171 14.7783C4.92966 14.4916 4.70367 14.1444 4.55948 13.7613C4.41757 13.3961 4.32037 12.9787 4.2926 12.3676C4.26437 11.7551 4.25781 11.5594 4.25781 10C4.25781 8.44055 4.26437 8.24493 4.29245 7.6326C4.32022 7.02133 4.41727 6.604 4.55917 6.23871C4.70337 5.85556 4.9295 5.50842 5.22171 5.22171C5.50842 4.9295 5.85556 4.70352 6.23871 4.55933C6.604 4.41742 7.02133 4.32037 7.6326 4.29245C8.24493 4.26453 8.44055 4.25781 10 4.25781C11.5594 4.25781 11.7551 4.26453 12.3674 4.2926C12.9787 4.32037 13.396 4.41742 13.7613 4.55917C14.1444 4.70337 14.4916 4.9295 14.7784 5.22171C15.0705 5.50858 15.2966 5.85556 15.4407 6.23871C15.5827 6.604 15.6798 7.02133 15.7077 7.6326C15.7356 8.24493 15.7422 8.44055 15.7422 10C15.7422 11.5594 15.7356 11.7551 15.7076 12.3674Z" fill="#999999"/>
</svg>
