<svg width="18" height="14" viewBox="0 0 18 14" fill="none" xmlns="http://www.w3.org/2000/svg">
<path d="M16.418 0.144531H5.80078C4.9282 0.144531 4.21875 0.854336 4.21875 1.72656C4.21875 2.59914 4.9282 3.30859 5.80078 3.30859H16.418C17.2902 3.30859 18 2.59914 18 1.72656C18 0.854336 17.2902 0.144531 16.418 0.144531Z" fill="#2A2A2A"/>
<path d="M16.418 5.41797H5.80078C4.9282 5.41797 4.21875 6.12777 4.21875 7C4.21875 7.87258 4.9282 8.58203 5.80078 8.58203H16.418C17.2902 8.58203 18 7.87258 18 7C18 6.12777 17.2902 5.41797 16.418 5.41797Z" fill="#2A2A2A"/>
<path d="M16.418 10.6914H5.80078C4.9282 10.6914 4.21875 11.4012 4.21875 12.2734C4.21875 13.146 4.9282 13.8555 5.80078 13.8555H16.418C17.2902 13.8555 18 13.146 18 12.2734C18 11.4012 17.2902 10.6914 16.418 10.6914Z" fill="#2A2A2A"/>
<path d="M1.58203 0.144531C0.709453 0.144531 0 0.854336 0 1.72656C0 2.59914 0.709453 3.30859 1.58203 3.30859C2.45426 3.30859 3.16406 2.59914 3.16406 1.72656C3.16406 0.854336 2.45426 0.144531 1.58203 0.144531Z" fill="#2A2A2A"/>
<path d="M1.58203 5.41797C0.709453 5.41797 0 6.12777 0 7C0 7.87258 0.709453 8.58203 1.58203 8.58203C2.45426 8.58203 3.16406 7.87258 3.16406 7C3.16406 6.12777 2.45426 5.41797 1.58203 5.41797Z" fill="#2A2A2A"/>
<path d="M1.58203 10.6914C0.709453 10.6914 0 11.4012 0 12.2734C0 13.146 0.709453 13.8555 1.58203 13.8555C2.45426 13.8555 3.16406 13.146 3.16406 12.2734C3.16406 11.4012 2.45426 10.6914 1.58203 10.6914Z" fill="#2A2A2A"/>
</svg>
