<svg width="15" height="15" viewBox="0 0 15 15" fill="none" xmlns="http://www.w3.org/2000/svg">
<path d="M8.70751 0.868926C8.6431 0.764297 8.62242 0.693595 8.62242 0.693595L8.65311 0.663876C8.65311 0.663876 8.7128 0.689983 8.81712 0.734976C8.86635 0.75565 8.92663 0.781029 8.99572 0.809654C9.06378 0.835596 9.13785 0.865845 9.21724 0.886122C9.25634 0.898877 9.29615 0.911567 9.3373 0.916437C9.35801 0.919319 9.37775 0.925316 9.39827 0.929292C9.4186 0.93075 9.439 0.931445 9.45928 0.934162C9.54128 0.945758 9.61667 0.936382 9.69933 0.931843C9.73767 0.917 9.78029 0.912826 9.822 0.893941C9.86021 0.870185 9.91017 0.856403 9.94565 0.825955C9.96444 0.812371 9.98396 0.798224 10.0049 0.784242C10.0266 0.771387 10.0497 0.761216 10.0728 0.734943L10.2188 0.605862C10.2202 0.603875 10.2103 0.619082 10.2151 0.611992L10.2161 0.610898L10.2186 0.608579L10.2234 0.604239L10.2522 0.577071L10.2906 0.54172L10.3629 0.46956C10.4083 0.42026 10.4655 0.381827 10.5113 0.334317C10.5565 0.28515 10.6171 0.255066 10.6654 0.20739C10.717 0.164584 10.7774 0.132513 10.8356 0.0909992C10.9579 0.0304349 11.1008 -0.0145245 11.2287 0.0043604C11.2608 0.00797173 11.292 0.0132396 11.3226 0.0192033C11.3523 0.0278838 11.3801 0.0386183 11.4077 0.0494855C11.4642 0.0690993 11.5128 0.0971617 11.5587 0.124893C11.6502 0.180587 11.723 0.245094 11.7812 0.30748C11.839 0.370033 11.8825 0.430961 11.9138 0.484071C11.9466 0.536054 11.9655 0.581975 11.9789 0.61335C11.9899 0.64562 11.9957 0.663014 11.9957 0.663014L11.9651 0.693098C11.9651 0.693098 11.8993 0.669707 11.7983 0.625277C11.7491 0.604637 11.6895 0.578728 11.621 0.549705C11.5548 0.521046 11.4821 0.489505 11.4052 0.462138C11.367 0.447262 11.3274 0.431856 11.2874 0.421684C11.2671 0.41645 11.2472 0.408067 11.2268 0.401938C11.2064 0.397598 11.1862 0.392131 11.1658 0.385074C11.0833 0.35678 10.998 0.328883 10.8925 0.317287C10.844 0.324013 10.7861 0.321826 10.7357 0.343958C10.6872 0.369867 10.6315 0.389812 10.5925 0.435865C10.5533 0.480261 10.5085 0.519091 10.481 0.575647L10.441 0.659933L10.4226 0.702374L10.4136 0.723413L10.4092 0.73428L10.407 0.73915L10.406 0.741702L10.4053 0.743325C10.4093 0.737163 10.3998 0.752204 10.3998 0.752204L10.3211 0.934957C10.2952 0.993898 10.236 1.06043 10.1876 1.11897C10.1385 1.18278 10.0727 1.21942 10.0142 1.26945C9.95289 1.31478 9.87806 1.34088 9.80957 1.37368C9.66379 1.41752 9.5115 1.42537 9.38335 1.38929C9.31791 1.37408 9.25769 1.3541 9.20462 1.32511C9.14906 1.30043 9.10118 1.26965 9.05604 1.2399C8.96632 1.17738 8.89522 1.11118 8.83903 1.04628C8.78161 0.983495 8.73908 0.921506 8.70751 0.868926ZM15 11.2363V15H0V11.2363H1.02176V7.00836L3.90108 4.88208V7.00836L6.77996 4.88208V7.00836L9.65945 4.88208V9.06138H10.6529L11.1924 1.66846H12.8392L13.3114 9.06138H14.4193V11.2366L15 11.2363ZM4.70208 9.611H2.43834V11.8105H4.70208V9.611ZM8.60281 9.611H6.33902V11.8105H8.60281V9.611ZM12.5526 9.611H10.2888V11.8105H12.5526V9.611Z" fill="#2A2A2A"/>
</svg>
