<svg width="8" height="12" viewBox="0 0 8 12" fill="none" xmlns="http://www.w3.org/2000/svg">
<path d="M0.99549 6.46824L6.44934 11.8083C6.57548 11.9319 6.74387 12 6.92342 12C7.10296 12 7.27135 11.9319 7.39749 11.8083L7.79913 11.4151C8.06048 11.1589 8.06048 10.7425 7.79913 10.4867L3.2194 6.00249L7.80421 1.51326C7.93035 1.38965 8 1.22487 8 1.04916C8 0.873261 7.93035 0.708482 7.80421 0.584775L7.40257 0.191706C7.27633 0.0680971 7.10805 0 6.9285 0C6.74895 0 6.58057 0.0680971 6.45442 0.191706L0.99549 5.53664C0.869051 5.66064 0.799603 5.8262 0.800002 6.00219C0.799603 6.17888 0.869051 6.34434 0.99549 6.46824Z" fill="#787878" fill-opacity="0.5"/>
</svg>
