<svg width="8" height="12" viewBox="0 0 8 12" fill="none" xmlns="http://www.w3.org/2000/svg">
<path d="M7.00451 5.53176L1.55066 0.191706C1.42452 0.068097 1.25613 0 1.07658 0C0.897036 0 0.728648 0.068097 0.602507 0.191706L0.200869 0.584873C-0.0604798 0.841066 -0.0604798 1.25745 0.200869 1.51326L4.7806 5.99751L0.195788 10.4867C0.0696466 10.6104 0 10.7751 0 10.9508C0 11.1267 0.0696466 11.2915 0.195788 11.4152L0.597426 11.8083C0.723666 11.9319 0.891954 12 1.0715 12C1.25105 12 1.41943 11.9319 1.54558 11.8083L7.00451 6.46336C7.13095 6.33936 7.2004 6.1738 7.2 5.99781C7.2004 5.82112 7.13095 5.65566 7.00451 5.53176Z" fill="#787878" fill-opacity="0.5"/>
</svg>
