<svg width="35" height="17" viewBox="0 0 35 17" fill="none" xmlns="http://www.w3.org/2000/svg">
<path d="M0.208218 12.1168C0.305199 12.3685 0.608791 12.572 1.46897 12.9685C1.91592 13.1719 2.7002 13.534 3.21041 13.7685C3.72061 14.0064 4.35731 14.2995 4.62296 14.4236C4.8886 14.5443 5.36507 14.765 5.6771 14.9132C7.38902 15.7167 8.61182 16.2684 8.76783 16.3132C8.91962 16.3546 10.6906 16.3615 21.3416 16.3546L33.7383 16.3442L33.9871 16.2408C34.122 16.1856 34.3033 16.0718 34.3918 15.9891C34.7123 15.6925 34.687 16.358 34.687 8.1928C34.687 1.2896 34.6828 0.851689 34.6153 0.693075C34.5057 0.448256 34.181 0.186195 33.8648 0.0827503L33.6118 -3.8147e-06H21.2573H8.90276L8.70458 0.0758553C8.59917 0.113785 7.90765 0.427566 7.16554 0.768933C6.42764 1.1103 5.08256 1.72752 4.18022 2.14819C0.237736 3.96537 0.410614 3.87572 0.237736 4.24812C0.153404 4.43087 0.153404 4.50328 0.157623 8.21694C0.161839 10.8099 0.174484 12.0375 0.208218 12.1168Z" fill="#C42F2F"/>
</svg>
