<svg width="15" height="15" viewBox="0 0 15 15" fill="none" xmlns="http://www.w3.org/2000/svg">
<path d="M11.6978 2.8038C11.5701 2.8038 11.4424 2.8524 11.3452 2.94961C11.251 3.04376 11.1992 3.16901 11.1992 3.30221C11.1992 3.4354 11.2511 3.56062 11.3452 3.6548C11.5396 3.84922 11.8559 3.84925 12.0504 3.6548C12.1446 3.56065 12.1965 3.43543 12.1965 3.30221C12.1965 3.16901 12.1446 3.04379 12.0504 2.94961C11.9532 2.8524 11.8255 2.8038 11.6978 2.8038Z" fill="#2A2A2A"/>
<path d="M13.083 0H8.15555L0 8.15555L6.84445 15L15 6.84445V1.91699L13.083 0ZM3.31852 8.57036L7.6326 4.25629L8.25481 4.87851L3.94074 9.19258L3.31852 8.57036ZM4.56298 9.8148L7.21781 7.15997L7.84003 7.78219L5.1852 10.437L4.56298 9.8148ZM6.42964 11.6815L5.80742 11.0593L9.29187 7.57481L9.91409 8.19703L6.42964 11.6815ZM12.6726 4.27703C12.4039 4.54577 12.0508 4.68017 11.6978 4.68017C11.3448 4.68017 10.9917 4.54577 10.723 4.27703C10.4626 4.01668 10.3192 3.67044 10.3192 3.30221C10.3192 2.93398 10.4626 2.58778 10.723 2.3274C11.2605 1.78992 12.1351 1.78989 12.6726 2.3274C12.933 2.58778 13.0764 2.93398 13.0764 3.30221C13.0764 3.67044 12.933 4.01665 12.6726 4.27703Z" fill="#2A2A2A"/>
</svg>
