<svg width="15" height="15" viewBox="0 0 15 15" fill="none" xmlns="http://www.w3.org/2000/svg">
<path d="M10.0167 1.7162C7.72843 -0.572067 4.0041 -0.572067 1.71583 1.7162C-0.571944 4.00497 -0.571944 7.7288 1.71583 10.0176C3.7536 12.0548 6.92731 12.2731 9.21409 10.6823C9.26221 10.91 9.37233 11.1272 9.54942 11.3043L12.8819 14.6368C13.3675 15.1214 14.1523 15.1214 14.6354 14.6368C15.1205 14.1516 15.1205 13.3669 14.6354 12.8832L11.303 9.54979C11.1269 9.37419 10.9091 9.26357 10.6814 9.21546C12.2732 6.92818 12.055 3.75496 10.0167 1.7162ZM8.96458 8.96545C7.25619 10.6738 4.47584 10.6738 2.76795 8.96545C1.06055 7.25706 1.06055 4.47721 2.76795 2.76882C4.47584 1.06092 7.25619 1.06092 8.96458 2.76882C10.673 4.47721 10.673 7.25706 8.96458 8.96545Z" fill="#2A2A2A"/>
</svg>
