<svg width="18" height="18" viewBox="0 0 18 18" fill="none" xmlns="http://www.w3.org/2000/svg">
<path d="M17.3915 3.54543L11.9377 8.99989L17.3915 14.4541C18.2028 15.2656 18.2028 16.5802 17.3915 17.3918C16.9862 17.7971 16.4548 17.9999 15.9236 17.9999C15.3916 17.9999 14.8601 17.7974 14.4551 17.3918L9.00001 11.937L3.54535 17.3917C3.14007 17.7971 2.6086 17.9999 2.07697 17.9999C1.5455 17.9999 1.01438 17.7974 0.608739 17.3917C-0.2025 16.5806 -0.2025 15.2659 0.608739 14.454L6.06247 8.99984L0.608429 3.54543C-0.20281 2.73419 -0.20281 1.41928 0.608429 0.608041C1.41951 -0.202578 2.73365 -0.202578 3.54504 0.608041L8.99996 6.0625L14.4545 0.608041C15.266 -0.202578 16.5803 -0.202578 17.3912 0.608041C18.2028 1.41928 18.2028 2.73419 17.3915 3.54543Z" fill="#C0C0C0"/>
</svg>
