<svg width="25" height="13" viewBox="0 0 25 13" fill="none" xmlns="http://www.w3.org/2000/svg">
<path d="M0.0376472 9.35132C0.107859 9.53356 0.327656 9.68085 0.950409 9.96793C1.27399 10.1152 1.8418 10.3773 2.21118 10.5471C2.58055 10.7193 3.04152 10.9315 3.23384 11.0214C3.42616 11.1088 3.77111 11.2686 3.99701 11.3759C5.23641 11.9576 6.1217 12.357 6.23465 12.3894C6.34455 12.4194 7.62668 12.4244 15.3378 12.4194L24.3128 12.4119L24.4929 12.337C24.5906 12.2971 24.7219 12.2147 24.786 12.1548C25.018 11.9401 24.9997 12.4219 24.9997 6.51042C24.9997 1.51263 24.9966 1.19559 24.9478 1.08075C24.8684 0.903508 24.6333 0.713781 24.4044 0.638889L24.2212 0.578977H15.2768L6.33234 0.578977L6.18886 0.633896C6.11254 0.661357 5.6119 0.888529 5.07462 1.13567C4.54039 1.38282 3.56658 1.82967 2.9133 2.13423C0.0590172 3.44983 0.184177 3.38493 0.0590153 3.65454C-0.00203896 3.78685 -0.00203705 3.83927 0.00101471 6.52789C0.00406837 8.40519 0.0132256 9.2939 0.0376472 9.35132Z" fill="#C42F2F"/>
</svg>
